<?xml version="1.0" standalone="no"?>
<!DOCTYPE svg PUBLIC "-//W3C//DTD SVG 20010904//EN"
 "http://www.w3.org/TR/2001/REC-SVG-20010904/DTD/svg10.dtd">
<svg version="1.0" xmlns="http://www.w3.org/2000/svg"
 width="400.000000pt" height="400.000000pt" viewBox="0 0 400.000000 400.000000"
 preserveAspectRatio="xMidYMid meet">

<g transform="translate(0.000000,1024.000000) scale(0.100000,-0.100000)"
fill="#000000" stroke="none">
<path d="M4820 9154 c-224 -27 -310 -40 -456 -69 -827 -168 -1577 -576 -2159
-1177 -561 -578 -919 -1258 -1079 -2048 -96 -474 -95 -1011 5 -1517 132 -675
434 -1298 874 -1808 506 -585 1180 -1034 1917 -1275 272 -89 585 -156 848
-181 159 -15 529 -15 685 0 490 46 1002 194 1440 416 413 209 735 439 1068
764 358 351 574 644 790 1078 185 370 303 738 371 1153 61 375 65 820 10 1195
-170 1172 -899 2259 -1929 2878 -503 302 -1047 493 -1640 574 -105 14 -661 27
-745 17z m371 -334 c139 -27 268 -129 336 -268 38 -75 38 -77 38 -197 0 -115
-1 -123 -32 -186 -104 -213 -346 -326 -562 -263 -161 46 -295 194 -330 362
-16 75 -14 118 9 208 44 169 181 302 353 339 77 17 119 18 188 5z m852 -271
c3 -11 15 -23 26 -26 31 -8 26 -26 -13 -47 -34 -18 -35 -18 -65 3 -17 13 -31
24 -31 26 0 9 56 63 66 64 7 0 14 -8 17 -20z m-1723 -28 c0 -6 11 -22 25 -37
29 -32 32 -65 8 -90 -10 -10 -18 -21 -18 -25 0 -21 -16 -17 -43 11 -17 16 -39
30 -49 30 -10 0 -25 5 -33 11 -13 8 -12 12 8 26 12 8 22 24 22 34 0 12 7 19
20 19 11 0 23 7 26 15 7 16 34 21 34 6z m-582 -115 c54 -28 106 -88 123 -141
16 -48 16 -48 83 -67 118 -32 187 -97 205 -191 15 -83 -7 -139 -73 -185 l-39
-27 -426 0 -426 0 -3 55 c-4 68 20 124 67 156 l35 23 43 -43 c87 -88 181 -103
195 -31 3 15 -8 28 -43 52 -58 40 -99 115 -99 182 0 91 61 179 155 223 49 23
153 20 203 -6z m2170 -92 c20 -6 22 -13 22 -65 0 -35 8 -80 20 -111 11 -29 20
-56 20 -61 0 -11 -110 -58 -121 -51 -5 3 -9 11 -9 17 0 23 -59 83 -99 102 -31
14 -41 24 -41 42 0 14 7 26 18 30 61 20 101 46 112 73 13 31 31 36 78 24z
m650 -59 c60 -28 141 -105 170 -162 11 -21 26 -67 33 -101 l13 -62 21 20 c30
28 89 50 133 50 53 0 102 -34 131 -93 16 -32 29 -47 43 -47 11 0 35 -15 53
-33 60 -60 56 -149 -9 -188 -29 -18 -57 -19 -401 -19 -392 0 -431 4 -470 46
-28 30 -38 83 -18 91 11 4 9 12 -10 32 -32 34 -72 116 -81 164 -17 91 37 211
120 268 94 64 183 75 272 34z m-1838 -361 c8 -8 33 -27 57 -41 24 -13 43 -28
43 -33 0 -4 -32 -33 -70 -65 -86 -69 -161 -158 -220 -261 -50 -88 -106 -239
-116 -314 -5 -40 -10 -50 -23 -46 -9 2 -65 17 -124 32 l-108 27 6 41 c12 81
58 207 104 286 86 149 187 252 341 348 72 45 91 50 110 26z m876 -45 c138 -90
292 -256 356 -384 31 -61 88 -225 88 -252 0 -17 -17 -25 -112 -51 -61 -17
-115 -29 -119 -27 -3 3 -10 25 -14 50 -29 200 -173 438 -351 586 l-64 53 27
15 c16 7 41 25 56 37 16 13 34 24 41 24 8 0 49 -23 92 -51z m-622 -89 c77 -26
184 -26 267 -1 l62 20 56 -43 c75 -58 88 -71 148 -141 48 -57 78 -103 71 -110
-9 -8 -237 -46 -333 -55 -60 -6 -114 -15 -118 -19 -5 -5 -7 -21 -5 -37 3 -28
5 -29 65 -32 71 -3 278 28 370 57 l62 19 20 -34 c24 -40 81 -215 81 -248 0
-28 -5 -30 -206 -51 -302 -33 -673 -29 -919 10 -49 8 -94 15 -99 15 -22 0 23
176 70 273 13 27 22 36 33 31 94 -38 320 -77 422 -72 60 3 64 4 67 29 2 14 -3
31 -10 37 -7 6 -63 16 -123 22 -126 12 -313 48 -321 61 -12 20 123 176 210
244 32 25 61 45 65 45 3 0 33 -9 65 -20z m-1862 -65 c20 -10 35 -22 32 -26 -3
-5 13 -41 35 -81 52 -96 59 -147 32 -236 -23 -78 -75 -145 -137 -177 -22 -11
-45 -28 -52 -37 -25 -34 -124 -16 -199 34 -111 75 -152 204 -108 338 23 68
117 166 185 192 56 22 159 18 212 -7z m4640 -150 l42 -29 -26 -11 c-36 -14
-64 -41 -78 -76 l-12 -29 -29 40 c-16 21 -41 47 -56 57 -16 9 -30 18 -31 19
-2 1 15 19 38 40 23 21 48 51 56 67 l16 29 19 -39 c11 -21 38 -51 61 -68z
m-3636 -101 c-4 -9 -11 -36 -17 -59 -10 -40 -13 -43 -89 -74 -125 -51 -200
-117 -213 -190 -13 -67 48 -152 143 -201 l40 -20 0 -86 c0 -98 3 -97 -99 -43
-60 32 -91 37 -91 15 0 -24 48 -54 121 -78 l69 -22 0 -38 c0 -24 -5 -38 -12
-38 -7 0 -48 16 -91 34 -66 29 -79 32 -84 19 -9 -22 29 -47 115 -79 l72 -27 0
-39 c0 -36 -2 -39 -22 -33 -13 3 -54 21 -91 40 -58 29 -69 31 -74 18 -4 -10 3
-24 20 -39 26 -22 125 -64 152 -64 11 0 15 -12 15 -46 0 -42 -1 -45 -22 -38
-13 3 -49 20 -82 36 -58 29 -86 31 -86 5 0 -16 62 -52 132 -76 52 -17 53 -19
56 -59 2 -23 1 -42 -1 -42 -14 0 -135 55 -150 68 -21 18 -43 3 -33 -23 6 -16
108 -68 160 -81 23 -5 26 -11 26 -51 0 -52 -2 -52 -111 3 -67 33 -79 34 -79 5
0 -21 28 -38 115 -72 70 -27 70 -28 73 -68 4 -52 -6 -52 -98 -6 -79 40 -80 40
-80 21 0 -23 56 -63 120 -87 53 -19 60 -25 60 -49 0 -15 -3 -29 -6 -33 -7 -7
-107 47 -170 92 -23 16 -55 51 -71 78 l-28 48 0 560 0 560 27 47 c34 57 81 97
170 144 62 32 190 83 212 84 4 0 5 -7 2 -16z m2072 -14 c83 -34 196 -105 248
-157 58 -58 59 -65 59 -663 l0 -545 -27 -45 c-35 -60 -80 -101 -156 -144 -35
-20 -66 -36 -68 -36 -2 0 -4 15 -4 33 0 30 4 34 52 51 74 26 128 62 128 86 0
22 -9 20 -85 -20 -28 -15 -60 -30 -73 -34 -21 -7 -22 -4 -22 38 0 38 4 46 23
52 57 18 156 68 162 82 11 30 -12 34 -61 9 -27 -14 -66 -32 -86 -40 l-38 -16
0 42 c0 42 1 42 58 66 86 36 122 60 122 82 0 24 -1 24 -58 -5 -26 -13 -64 -31
-84 -39 l-38 -16 0 43 0 43 70 27 c76 30 120 60 120 82 0 21 -13 18 -100 -26
-44 -22 -82 -40 -85 -40 -3 0 -5 19 -5 43 0 41 2 44 38 56 20 8 61 25 90 39
41 20 52 30 52 49 0 28 -6 29 -49 2 -18 -11 -56 -29 -82 -40 l-49 -19 0 40 c0
33 4 42 23 49 88 34 157 74 157 92 0 26 -9 25 -100 -21 l-80 -40 0 43 0 43 68
28 c81 36 122 63 122 82 0 21 -14 18 -106 -25 l-84 -40 0 89 0 88 48 31 c66
42 76 51 106 95 48 71 32 146 -47 210 -45 37 -145 90 -190 101 -21 6 -29 18
-45 66 -10 32 -15 59 -10 59 5 0 44 -14 86 -30z m1217 -156 c36 -14 45 -57 45
-217 0 -141 -2 -157 -21 -181 l-20 -26 -195 0 -194 0 -89 -69 -88 -69 -7 226
c-7 233 -2 288 30 323 16 18 33 19 270 19 139 0 260 -3 269 -6z m-5048 -39 c9
-19 32 -44 50 -55 42 -24 42 -37 -1 -55 -20 -9 -38 -26 -46 -45 -19 -45 -27
-45 -50 0 -11 22 -32 46 -45 52 -33 15 -32 21 9 52 20 15 37 38 41 56 9 39 22
38 42 -5z m3849 5 c81 -46 114 -84 114 -131 0 -50 -11 -71 -50 -99 l-31 -22 7
64 6 63 -56 51 c-41 38 -56 59 -56 78 0 33 4 32 66 -4z m-2140 -12 c-3 -18
-14 -37 -23 -43 -9 -5 -30 -22 -47 -37 -29 -25 -31 -30 -29 -88 l3 -61 -28 21
c-83 66 -64 144 52 210 68 39 80 39 72 -2z m3989 -153 c25 -24 25 -26 25 -213
l0 -189 -31 -7 c-17 -3 -136 -6 -264 -6 -129 0 -240 -3 -249 -6 -19 -7 -21
-55 -4 -72 9 -9 85 -12 280 -12 l268 0 0 -268 c0 -256 -1 -269 -20 -290 -20
-22 -25 -22 -309 -22 -278 0 -288 1 -310 21 -12 11 -26 32 -32 46 -5 13 -9
167 -9 341 l0 317 59 26 c86 38 95 57 101 209 3 69 9 131 13 138 6 9 64 12
233 12 l225 0 24 -25z m-3660 -154 c241 -39 341 -46 715 -45 308 0 393 4 542
22 144 17 374 61 461 88 16 5 17 -28 17 -590 0 -328 -4 -596 -8 -596 -5 0 -55
-7 -113 -16 -222 -33 -413 -46 -780 -51 -500 -7 -848 15 -1116 73 l-23 4 0
589 0 589 93 -24 c50 -13 146 -33 212 -43z m-1665 -140 c14 -9 33 -33 42 -52
16 -31 18 -75 18 -479 0 -274 -4 -459 -10 -482 -6 -20 -23 -47 -37 -58 -27
-21 -33 -21 -482 -18 -501 3 -480 1 -522 65 -18 26 -19 57 -19 468 0 261 4
455 10 476 12 42 46 76 92 92 24 9 154 11 458 9 387 -3 427 -5 450 -21z m675
-93 c23 -27 26 -39 22 -72 -12 -86 -110 -114 -174 -50 -22 22 -25 32 -20 67 8
57 43 87 102 87 36 0 47 -5 70 -32z m3743 -101 c20 -21 20 -25 7 -44 -8 -12
-23 -20 -32 -18 -10 2 -23 4 -30 4 -6 1 -19 8 -27 17 -12 12 -13 20 -6 35 13
24 31 25 27 2 -1 -10 3 -18 8 -18 6 0 10 10 10 23 -1 28 16 28 43 -1z m-3578
-236 l0 -48 -47 -18 c-100 -37 -248 -120 -295 -165 -43 -42 -48 -51 -48 -91 0
-186 324 -332 960 -434 245 -39 478 -56 850 -62 636 -10 1114 40 1565 163 316
87 511 230 480 352 -20 80 -124 162 -288 227 -83 33 -96 41 -99 64 -5 37 1 61
17 61 24 0 202 -76 260 -111 89 -54 131 -95 164 -161 l31 -61 0 -477 c0 -446
-1 -481 -19 -533 -49 -140 -158 -238 -375 -334 -544 -242 -2012 -300 -2866
-113 -210 46 -362 101 -502 181 -153 88 -233 177 -263 296 -14 53 -15 129 -13
530 l3 468 23 44 c50 93 148 161 338 236 121 47 124 46 124 -14z m4937 -86
c40 -41 48 -45 94 -45 49 0 50 -1 45 -27 -2 -16 -5 -34 -5 -40 -1 -9 -17 -13
-47 -13 -38 0 -53 -6 -87 -35 -122 -105 -282 64 -163 172 28 26 44 33 77 33
36 0 47 -6 86 -45z m-4941 -47 c-3 -13 -6 -33 -6 -45 0 -16 -15 -30 -60 -54
-70 -37 -160 -127 -160 -161 0 -20 -1 -21 -16 -7 -27 28 -30 93 -5 133 27 43
62 69 161 118 88 44 94 45 86 16z m3169 -7 c77 -35 149 -85 171 -119 17 -25
21 -75 9 -111 -9 -30 -19 -26 -33 13 -17 46 -79 100 -160 139 -37 17 -68 32
-69 33 -2 0 -5 17 -7 37 -6 46 3 47 89 8z m-35 -133 c59 -32 110 -91 110 -127
0 -43 -19 -49 -44 -15 -25 35 -51 62 -89 91 -27 21 -47 73 -28 73 5 0 28 -10
51 -22z m-3130 -8 c0 -13 -28 -48 -70 -89 -67 -65 -70 -66 -70 -39 0 31 55 99
105 130 37 22 35 22 35 -2z m5229 -295 c10 -11 22 -37 25 -57 l7 -38 -633 0
c-610 0 -634 -1 -665 -20 -63 -38 -63 -40 -63 -454 0 -419 2 -437 65 -476 32
-20 48 -20 659 -20 l626 0 0 -40 0 -40 -652 2 -653 3 -41 28 c-22 15 -50 45
-63 67 -22 39 -22 40 -19 520 l3 482 38 34 37 34 655 -2 c640 -3 655 -3 674
-23z m-6438 -217 c18 -15 48 -29 64 -33 127 -27 124 -23 149 -156 9 -46 19
-93 21 -105 3 -11 18 -38 35 -59 27 -35 30 -44 30 -115 0 -71 -2 -78 -29 -104
-35 -34 -44 -54 -71 -165 -11 -47 -27 -92 -36 -102 -8 -9 -36 -20 -62 -24 -39
-6 -56 -16 -102 -62 -30 -31 -70 -65 -87 -78 -32 -21 -34 -21 -113 -6 -68 12
-92 13 -155 2 -88 -15 -94 -13 -182 70 -34 31 -70 60 -80 63 -10 2 -36 10 -59
15 -22 6 -48 19 -58 30 -9 10 -26 62 -37 116 -16 84 -24 103 -55 137 l-36 40
4 84 c3 78 5 85 35 116 25 26 34 46 42 98 17 102 39 169 64 184 12 8 42 17 66
21 25 4 55 18 73 34 l29 26 258 0 257 -1 35 -26z m6436 1 l23 -23 -2 -355 -3
-355 -25 -13 c-19 -10 -158 -13 -607 -13 -515 0 -583 2 -597 16 -14 13 -16 61
-16 373 0 374 1 385 44 393 11 1 276 2 589 1 l570 -2 24 -22z m-5923 -665 c28
-28 38 -55 32 -89 -21 -108 -176 -86 -176 25 0 64 100 108 144 64z m275 -97
c46 -74 197 -199 325 -268 96 -51 187 -82 354 -118 276 -60 519 -86 950 -102
798 -30 1600 51 1899 191 136 64 302 191 372 284 19 25 38 43 42 39 14 -15 29
-116 29 -192 l0 -78 -137 -130 c-76 -71 -194 -178 -263 -237 -69 -60 -142
-124 -162 -143 l-38 -35 0 -271 c0 -150 -4 -278 -8 -284 -20 -32 -259 -88
-492 -117 -668 -82 -1557 -63 -2085 46 -114 23 -234 65 -236 82 -1 6 -2 129
-3 273 -1 249 -2 263 -21 278 -11 8 -112 71 -225 139 -113 68 -254 154 -315
191 -162 100 -271 155 -308 155 -48 0 -117 -36 -304 -158 -314 -205 -467 -301
-472 -297 -6 6 91 92 168 149 114 84 453 307 513 337 32 16 72 29 89 29 35 0
122 -41 202 -95 28 -19 54 -35 57 -35 3 0 5 73 5 163 0 155 12 237 35 237 5 0
18 -15 29 -33z m4394 -351 c136 -114 145 -128 67 -105 -32 10 -49 8 -121 -16
-151 -48 -182 -72 -259 -192 l-50 -78 0 -232 c0 -128 -2 -233 -5 -233 -2 0
-66 46 -142 103 -76 57 -191 139 -255 183 -65 43 -118 82 -118 86 0 3 46 48
102 100 56 51 210 195 342 319 l241 226 40 -31 c22 -17 93 -75 158 -130z
m-5938 14 c3 -11 17 -28 30 -38 l24 -19 -24 -23 c-14 -13 -27 -31 -30 -41 -5
-16 -12 -13 -46 23 -33 35 -37 43 -24 50 8 5 22 22 30 38 18 35 31 38 40 10z
m6613 -5 c73 -61 30 -165 -68 -165 -21 0 -41 9 -61 29 -86 87 35 215 129 136z
m-5292 -123 c177 -108 254 -157 254 -164 0 -5 -162 -8 -360 -8 -198 0 -360 2
-360 4 0 1 21 17 48 33 26 17 100 64 166 107 73 47 129 76 146 76 15 0 62 -22
106 -48z m4952 -84 c35 -46 50 -101 33 -122 -6 -7 -37 -23 -69 -35 -80 -29
-124 -58 -120 -79 5 -28 33 -25 118 12 l80 34 0 -46 c0 -47 1 -47 44 -63 l44
-16 6 30 c3 16 6 49 6 73 0 24 3 44 6 44 3 0 44 -29 90 -65 67 -53 85 -73 93
-103 19 -73 54 -291 48 -305 -3 -8 -90 -58 -194 -112 -675 -350 -615 -328
-721 -260 l-62 40 0 184 c0 175 1 183 18 169 26 -24 90 -48 127 -48 22 0 108
37 254 110 233 116 251 130 237 185 -8 32 -15 31 -154 -36 -57 -27 -106 -49
-108 -49 -2 0 -4 17 -4 38 0 35 3 38 53 62 42 20 53 30 55 53 2 15 1 27 -3 27
-3 0 -28 -11 -55 -25 -28 -14 -50 -23 -50 -21 0 2 -1 66 -2 141 l-3 138 95 43
c52 24 97 44 100 44 3 0 20 -19 38 -42z m-338 -72 c0 -29 7 -70 15 -90 8 -20
11 -36 6 -36 -6 0 -11 -67 -13 -155 -3 -173 -1 -168 -85 -201 -50 -20 -73 -15
-137 27 l-49 33 8 144 c7 141 8 146 40 196 18 29 41 58 50 66 16 13 137 66
158 69 4 1 7 -23 7 -53z m-4111 -158 l130 -81 -67 -45 c-37 -24 -95 -64 -129
-88 -34 -24 -63 -44 -65 -44 -2 0 -4 77 -5 170 -2 94 0 170 2 170 3 0 63 -37
134 -82z m-1069 -99 c0 -167 0 -171 -19 -158 -11 8 -68 47 -128 88 -59 40
-109 76 -110 80 -2 6 237 161 250 161 4 0 7 -77 7 -171z m808 -66 l2 -192 -72
-50 c-40 -28 -120 -84 -178 -124 l-105 -74 -55 42 c-30 22 -106 76 -167 119
l-113 79 0 198 0 198 343 -2 342 -2 3 -192z m3564 -76 c46 -35 165 -123 266
-196 l183 -133 -3 -101 -3 -101 -85 -57 c-47 -31 -167 -110 -267 -176 l-183
-120 0 474 c0 260 2 473 5 473 3 0 42 -29 87 -63z m-4384 -172 c132 -99 270
-202 307 -228 l67 -48 -291 -197 c-161 -108 -307 -207 -326 -220 l-35 -22 0
461 c0 452 0 461 19 448 11 -8 127 -95 259 -194z m1220 -473 l-3 -230 -197
132 c-108 72 -253 167 -322 211 -69 44 -125 83 -126 87 0 3 44 37 98 74 53 38
198 144 322 237 l225 168 3 -225 c1 -123 1 -328 0 -454z m-1745 564 c42 -51
46 -66 17 -66 -13 0 -25 -12 -34 -35 -18 -42 -43 -45 -57 -8 -12 32 -26 43
-55 43 -12 0 -27 6 -33 14 -14 16 0 30 42 40 16 4 33 17 39 31 16 36 39 31 81
-19z m6360 -494 c7 -219 3 -291 -16 -304 -10 -6 -85 43 -340 222 -95 66 -98
69 -75 82 32 19 412 215 419 217 3 0 9 -97 12 -217z m-5126 -67 c95 -60 245
-157 333 -215 l161 -105 -360 -3 c-199 -1 -524 -1 -724 0 l-362 3 355 236 355
236 35 -20 c19 -12 112 -71 207 -132z m1113 35 c61 -18 271 -49 375 -55 55 -3
119 -8 141 -11 l41 -5 13 -61 c15 -68 66 -181 106 -234 25 -33 26 -35 9 -53
-9 -11 -34 -31 -55 -46 l-38 -26 -111 49 c-180 81 -245 124 -361 241 -60 60
-117 129 -133 159 -16 28 -27 52 -25 52 2 0 19 -5 38 -10z m3128 -34 c100 -67
165 -71 269 -18 l61 31 78 -53 c115 -76 238 -161 328 -225 l78 -56 -360 -3
c-198 -1 -525 -1 -727 0 l-366 3 212 135 c272 173 363 228 370 224 3 -2 29
-19 57 -38z m-1312 -54 c-25 -38 -81 -103 -124 -144 -115 -110 -209 -170 -360
-232 l-64 -25 -49 38 c-26 22 -54 41 -61 43 -9 3 -1 18 23 44 46 51 78 119
105 219 l21 80 124 7 c119 6 408 44 419 54 2 3 6 0 8 -5 2 -6 -17 -42 -42 -79z
m-608 -34 c-11 -64 -55 -161 -92 -205 l-27 -32 -42 19 c-57 26 -151 26 -217 0
-28 -11 -54 -20 -58 -20 -24 0 -132 229 -132 279 0 8 90 11 289 11 l288 0 -9
-52z m-255 -540 c9 -326 3 -1229 -8 -1258 -8 -23 -10 -19 -23 35 -12 48 -16
192 -19 739 -2 373 -2 685 1 692 3 8 14 14 25 14 18 0 19 -12 24 -222z m-1170
174 c16 -9 44 -34 61 -55 28 -36 31 -46 33 -119 l2 -80 102 -109 102 -110 -64
-65 -63 -64 -34 33 c-19 17 -70 73 -113 123 -76 88 -82 92 -129 97 -72 9 -125
40 -155 90 -59 102 -12 231 101 273 47 17 115 11 157 -14z m2397 -31 c37 -59
75 -76 146 -65 l47 7 -7 -50 c-8 -65 2 -89 64 -157 27 -31 50 -57 50 -59 0 -1
-25 -28 -55 -60 -57 -61 -73 -101 -61 -157 l6 -30 -56 0 c-54 0 -99 -18 -117
-47 -44 -70 -78 -77 -109 -24 -25 46 -91 75 -151 68 l-49 -6 7 55 c6 49 4 59
-20 97 -15 23 -41 51 -59 62 -42 28 -45 58 -7 92 16 16 44 46 61 67 29 37 30
44 24 92 l-6 53 48 -1 c67 -1 119 23 140 64 33 64 62 64 104 -1z m-1359 -213
c0 -139 2 -413 4 -608 3 -305 1 -349 -10 -315 -7 22 -57 173 -110 335 -53 162
-111 320 -128 350 -81 146 -80 145 -67 200 8 35 25 65 56 99 69 77 214 189
247 191 4 0 7 -114 8 -252z m300 210 c96 -69 190 -161 216 -211 33 -65 28
-100 -26 -194 -55 -94 -161 -389 -249 -693 -7 -25 -10 135 -11 548 -1 472 1
582 12 582 7 0 33 -14 58 -32z m-2413 -173 c7 -14 19 -28 27 -31 21 -8 19 -30
-5 -47 -11 -8 -25 -28 -31 -46 -9 -25 -14 -29 -25 -20 -8 6 -14 17 -14 24 0 7
-16 20 -35 29 -34 17 -35 17 -20 45 12 24 65 67 86 70 3 1 11 -10 17 -24z
m429 -35 c37 -22 49 -41 62 -99 6 -27 5 -41 -1 -41 -6 0 -28 -18 -49 -40 -31
-32 -46 -40 -75 -40 -71 0 -122 64 -111 141 11 86 98 126 174 79z m4055 -109
c48 -53 34 -136 -27 -166 -44 -20 -73 -19 -112 5 -39 23 -59 82 -43 127 29 78
126 97 182 34z m-408 -177 c50 -51 52 -54 33 -54 -7 0 -26 -13 -42 -30 -34
-35 -38 -36 -67 -10 -13 10 -32 26 -43 34 -19 14 -19 16 25 59 25 25 46 46 46
46 1 1 22 -20 48 -45z m-2494 -129 c61 -65 110 -124 110 -131 0 -7 -21 -31
-47 -54 l-48 -42 -73 79 c-41 43 -95 102 -120 131 l-46 54 24 19 c14 10 30 19
35 19 12 0 46 -31 136 -126 37 -38 75 -76 85 -84 11 -7 -15 22 -56 66 -147
155 -151 160 -144 178 4 9 13 16 20 14 8 -2 64 -57 124 -123z m-827 -27 c38
-20 57 -49 57 -89 0 -32 -5 -41 -34 -58 -40 -25 -64 -26 -111 -4 -35 17 -40
29 -36 83 2 30 53 80 82 80 11 0 30 -5 42 -12z m668 -114 c119 -121 149 -160
82 -107 -50 40 -218 223 -205 223 5 0 61 -52 123 -116z m1505 -31 c33 -21 54
-69 54 -121 0 -22 5 -53 11 -71 18 -51 5 -80 -48 -103 -36 -16 -59 -19 -105
-15 -33 3 -61 1 -64 -5 -11 -18 -36 32 -30 60 4 15 10 71 15 124 6 74 12 103
27 119 38 42 88 47 140 12z m-1143 -118 c15 -35 27 -68 27 -74 0 -11 -88 12
-133 36 l-28 14 48 44 c26 24 50 44 53 44 3 1 17 -28 33 -64z m1574 33 c28
-26 33 -92 7 -102 -8 -3 -12 -11 -9 -16 4 -6 1 -18 -5 -26 -11 -12 -21 -6 -69
38 -61 58 -73 78 -44 78 11 0 29 11 41 25 27 31 49 32 79 3z"/>
<path d="M5009 8614 c-60 -18 -131 -82 -163 -146 -21 -41 -26 -66 -26 -122 0
-85 21 -135 79 -199 110 -119 305 -123 420 -8 60 60 76 103 76 206 0 83 -2 94
-30 137 -34 54 -107 114 -163 134 -48 17 -135 16 -193 -2z m181 -97 c26 -14
57 -43 77 -71 27 -40 33 -58 33 -101 0 -29 -7 -68 -15 -88 -36 -87 -165 -132
-263 -92 -119 50 -153 183 -75 297 51 75 159 99 243 55z"/>
<path d="M6432 8103 c-25 -5 -67 -56 -75 -93 -9 -38 9 -100 36 -127 32 -32 93
-40 139 -19 108 52 81 227 -37 240 -22 2 -50 2 -63 -1z"/>
<path d="M7096 7147 c37 -32 41 -90 9 -123 -28 -28 -20 -31 15 -7 l25 17 -19
-22 c-11 -12 -15 -22 -9 -22 15 0 39 32 46 59 8 33 -17 83 -52 104 -41 24 -47
21 -15 -6z"/>
<path d="M7683 6880 c-17 -7 -23 -18 -23 -39 0 -31 17 -40 75 -41 42 0 76 -11
69 -21 -3 -5 0 -9 6 -9 6 0 13 7 16 15 4 10 20 15 45 15 40 0 59 18 59 58 0
16 -10 20 -52 26 -74 8 -169 6 -195 -4z"/>
<path d="M4352 6568 c-17 -17 -15 -53 4 -68 40 -34 786 -51 1239 -29 246 12
275 19 275 63 0 49 -13 51 -248 37 -255 -14 -821 -15 -1007 -1 -176 13 -249
12 -263 -2z"/>
<path d="M4373 6160 c-30 -12 -41 -57 -19 -78 51 -52 1438 -54 1500 -3 10 8
16 25 14 40 -4 39 -39 49 -128 40 -151 -16 -837 -22 -1075 -10 -126 7 -239 14
-250 16 -11 2 -30 0 -42 -5z"/>
<path d="M1837 6592 c-21 -23 -22 -46 -3 -61 10 -9 128 -12 420 -14 393 -1
406 -1 420 18 19 25 19 27 2 51 -14 18 -32 19 -418 22 -384 2 -405 2 -421 -16z"/>
<path d="M1840 6400 c-20 -20 -21 -30 -18 -315 3 -267 5 -296 21 -312 16 -17
49 -18 411 -21 386 -3 393 -2 419 18 l27 21 0 294 c0 290 0 295 -22 315 -21
19 -33 20 -420 20 -387 0 -399 -1 -418 -20z m575 -174 c16 -53 17 -54 65 -66
39 -9 50 -16 50 -31 0 -19 -13 -27 -74 -45 -25 -8 -31 -16 -41 -62 -14 -61
-17 -65 -38 -56 -9 3 -21 28 -28 60 -12 53 -14 55 -55 65 -79 20 -77 60 4 73
36 5 40 9 47 43 16 89 47 98 70 19z m-327 -136 c14 -31 24 -41 52 -47 47 -11
55 -49 13 -58 -15 -4 -33 -8 -39 -10 -6 -2 -16 -24 -23 -50 -15 -59 -37 -57
-60 5 -14 39 -21 46 -51 50 -29 4 -35 9 -35 30 0 21 7 27 38 34 28 7 39 16 44
35 14 61 38 66 61 11z"/>
<path d="M3180 5743 c0 -12 7 -23 15 -26 23 -9 26 9 5 28 -19 17 -20 17 -20
-2z"/>
<path d="M3180 5602 c0 -11 8 -26 18 -35 17 -15 163 -87 177 -87 4 0 5 10 3
23 -2 16 -25 34 -93 70 -49 26 -93 47 -97 47 -4 0 -8 -8 -8 -18z"/>
<path d="M6930 5559 c-75 -43 -112 -79 -81 -79 18 0 144 59 163 77 18 16 25
54 11 52 -5 -1 -46 -23 -93 -50z"/>
<path d="M3180 5460 c0 -16 21 -31 92 -65 88 -43 119 -47 105 -13 -5 14 -165
98 -186 98 -6 0 -11 -9 -11 -20z"/>
<path d="M6928 5429 c-58 -29 -78 -44 -78 -59 0 -11 3 -20 6 -20 3 0 44 18 90
39 66 31 84 44 84 60 0 29 -13 26 -102 -20z"/>
<path d="M3175 5338 c-6 -16 -1 -26 16 -39 25 -19 160 -79 178 -79 15 0 14 17
-1 30 -14 12 -177 110 -183 110 -2 0 -7 -10 -10 -22z"/>
<path d="M6935 5294 c-79 -45 -119 -74 -111 -81 2 -2 14 1 27 6 13 5 51 19 84
32 68 25 106 54 98 75 -7 19 -8 19 -98 -32z"/>
<path d="M3180 5200 c0 -23 48 -57 132 -94 56 -25 76 -22 65 8 -5 13 -170 106
-188 106 -5 0 -9 -9 -9 -20z"/>
<path d="M6933 5167 c-78 -40 -99 -59 -88 -77 6 -10 150 52 177 76 15 14 15
45 -1 43 -3 0 -43 -19 -88 -42z"/>
<path d="M3821 5174 c-28 -35 -26 -77 3 -111 19 -22 32 -28 66 -28 34 0 47 6
66 28 28 32 30 56 9 96 -17 33 -33 41 -85 41 -30 0 -43 -6 -59 -26z"/>
<path d="M6262 5177 c-24 -25 -29 -75 -12 -107 13 -25 71 -43 101 -31 95 36
75 161 -26 161 -30 0 -47 -6 -63 -23z"/>
<path d="M4074 5123 c-29 -21 -25 -66 8 -84 38 -20 84 31 60 68 -9 15 -54 25
-68 16z"/>
<path d="M4274 5107 c-58 -50 -19 -137 61 -137 53 0 85 31 85 82 0 70 -89 104
-146 55z"/>
<path d="M5815 5105 c-31 -30 -32 -73 -4 -109 40 -51 138 -27 155 38 7 28 -18
81 -41 90 -37 14 -86 6 -110 -19z"/>
<path d="M6077 5112 c-9 -10 -17 -26 -17 -35 0 -15 35 -47 52 -47 13 0 38 31
38 48 -1 42 -47 63 -73 34z"/>
<path d="M3183 5074 c-4 -11 2 -23 18 -35 41 -32 136 -79 158 -79 38 0 22 29
-31 56 -29 15 -70 37 -90 50 -45 28 -47 29 -55 8z"/>
<path d="M4496 5075 c-29 -15 -34 -70 -7 -84 20 -11 260 -28 462 -33 116 -3
139 5 139 48 0 43 -24 54 -123 55 -51 0 -172 6 -271 13 -126 8 -185 8 -200 1z"/>
<path d="M5525 5073 c-16 -2 -108 -7 -204 -11 -153 -7 -175 -10 -187 -27 -18
-24 -18 -36 0 -60 12 -17 26 -19 122 -17 60 1 186 7 279 13 146 8 173 13 190
29 15 16 17 25 9 47 -9 28 -11 28 -94 29 -47 1 -98 0 -115 -3z"/>
<path d="M6928 5034 c-66 -33 -88 -49 -88 -64 0 -11 3 -20 7 -20 18 0 171 81
176 93 13 35 -12 33 -95 -9z"/>
<path d="M1970 5526 c-138 -51 -214 -117 -272 -233 -42 -85 -43 -88 -43 -192
0 -100 2 -110 34 -176 116 -237 407 -325 623 -189 70 44 148 131 181 203 30
61 32 74 32 171 0 97 -2 110 -31 170 -79 164 -232 261 -411 259 -43 0 -94 -6
-113 -13z m255 -107 c67 -25 141 -94 175 -164 21 -42 25 -64 25 -145 0 -87 -3
-100 -31 -155 -61 -119 -210 -204 -338 -192 -81 8 -145 36 -204 91 -200 187
-115 515 153 587 46 12 158 1 220 -22z"/>
<path d="M2020 5274 c-79 -34 -128 -121 -110 -198 17 -77 100 -146 175 -146
109 0 202 118 175 220 -29 107 -143 166 -240 124z"/>
<path d="M7748 5425 c-8 -19 -8 -28 2 -40 11 -13 69 -15 446 -15 429 0 433 0
444 21 9 16 8 25 -6 40 -16 18 -36 19 -446 19 l-428 0 -12 -25z"/>
<path d="M7919 5178 l-77 -82 -51 47 c-57 53 -83 58 -107 21 l-17 -25 74 -75
c76 -77 99 -91 122 -77 27 16 187 207 187 223 0 17 -30 50 -46 50 -4 0 -43
-37 -85 -82z"/>
<path d="M3173 4624 c-14 -38 65 -114 183 -173 72 -36 80 -37 87 -11 4 16 -9
28 -72 64 -42 24 -100 65 -129 90 -30 25 -56 46 -58 46 -3 0 -7 -7 -11 -16z"/>
<path d="M7007 4617 c-3 -8 -1 -20 4 -28 6 -10 9 -7 9 14 0 29 -5 35 -13 14z"/>
<path d="M3160 4450 c0 -24 21 -46 81 -87 95 -65 179 -97 193 -74 7 11 -18 31
-89 71 -33 18 -84 50 -114 71 -62 44 -71 47 -71 19z"/>
<path d="M5320 4028 c-106 -30 -173 -147 -149 -260 34 -158 239 -221 365 -112
l39 34 -30 25 c-16 14 -33 25 -37 25 -4 0 -24 -12 -45 -26 -76 -52 -179 -12
-204 79 -12 46 9 98 54 131 39 29 113 27 155 -3 l32 -22 35 24 36 25 -40 34
c-63 54 -132 69 -211 46z"/>
<path d="M6116 4030 c-82 -26 -112 -135 -53 -192 12 -11 50 -34 85 -50 48 -24
62 -35 62 -52 0 -51 -49 -61 -92 -19 -27 26 -30 27 -56 12 -40 -22 -39 -51 2
-87 90 -79 222 -31 233 85 5 43 2 53 -23 82 -16 19 -56 46 -91 62 -62 28 -74
44 -51 67 18 18 43 15 63 -8 23 -25 57 -26 80 0 16 18 17 21 1 45 -33 51 -100
74 -160 55z"/>
<path d="M3870 3861 c0 -92 3 -188 6 -213 6 -43 7 -44 45 -45 l39 -2 0 100 c0
54 3 99 8 99 4 0 21 -23 37 -50 l31 -50 29 50 c17 27 33 50 38 50 4 0 7 -44 7
-97 l0 -98 40 -2 40 -1 0 214 0 214 -40 0 c-39 0 -40 -1 -75 -70 -19 -38 -37
-70 -40 -70 -3 0 -21 32 -40 70 l-35 70 -45 0 -45 0 0 -169z"/>
<path d="M4260 3818 l0 -213 110 -3 110 -4 0 46 0 46 -65 0 -65 0 0 51 0 52
54 -7 53 -6 6 37 c4 20 4 40 1 45 -3 4 -30 8 -60 8 l-54 0 0 40 0 40 65 0 c62
0 65 1 65 24 0 13 3 31 6 40 5 14 -8 16 -110 16 l-116 0 0 -212z"/>
<path d="M4570 3816 l0 -216 45 0 45 0 0 85 0 85 34 0 c85 0 130 50 123 138
-3 44 -10 59 -36 85 -30 30 -36 32 -121 35 l-90 4 0 -216z m148 112 c27 -27 1
-78 -39 -78 -16 0 -19 7 -19 45 0 40 2 45 23 45 13 0 28 -5 35 -12z"/>
<path d="M4870 3814 l0 -215 43 3 42 3 3 93 3 92 34 0 35 0 0 -93 0 -93 40 1
39 0 3 213 3 212 -42 0 -42 0 -3 -77 -3 -78 -32 -3 c-37 -4 -36 -6 -33 101 l1
57 -45 0 -46 0 0 -216z"/>
<path d="M5640 3814 l0 -215 43 3 42 3 5 100 5 100 37 -54 37 -54 33 54 33 54
5 -100 5 -100 43 -3 42 -3 0 215 0 216 -45 0 -45 0 -35 -70 c-19 -38 -39 -70
-43 -70 -5 0 -23 32 -42 70 l-34 70 -43 0 -43 0 0 -216z"/>
<path d="M7732 4155 c-52 -16 -72 -32 -72 -56 0 -23 16 -24 64 -4 39 16 76 48
76 65 0 13 -15 12 -68 -5z"/>
<path d="M2643 3720 c-28 -11 -30 -46 -4 -60 11 -6 90 -10 186 -10 172 0 205
6 205 40 0 11 -9 24 -19 30 -24 12 -337 12 -368 0z"/>
<path d="M3826 2557 c-28 -20 -18 -61 16 -65 23 -3 30 2 38 24 17 44 -16 69
-54 41z"/>
<path d="M6243 2507 c-77 -15 -155 -132 -139 -210 15 -75 73 -137 146 -157 77
-21 181 34 220 115 38 79 8 181 -69 232 -33 22 -104 31 -158 20z"/>
</g>
</svg>
