<svg xmlns="http://www.w3.org/2000/svg" width="58.466" height="79.352" viewBox="0 0 58.466 79.352">
  <g id="Group_94" data-name="Group 94" transform="translate(-116.851 -113.6)">
    <path id="Path_12" data-name="Path 12" d="M118.493,540.557h2.418a1.216,1.216,0,0,1,1.053.376A1.168,1.168,0,0,1,121.99,542a2.2,2.2,0,0,1-.813,1.115,2.449,2.449,0,0,1-1.447.4h-.8l-.622,1.747h-1.461l1.642-4.708Zm.77,2.007h.356a1.162,1.162,0,0,0,.641-.146.728.728,0,0,0,.3-.374.429.429,0,0,0-.018-.376c-.062-.1-.23-.155-.5-.155h-.414l-.362,1.05Zm3.843-2.007-1.636,4.708h1.458l1.637-4.708Zm2.682,0h1.456l-1.222,3.549h1.929l-.448,1.16h-3.336l1.622-4.708Zm3.9,0h3.7l-.4,1.005h-2.2l-.258.749h2.069l-.38.96h-2.02l-.319.927H132.2l-.416,1.067h-3.726l1.622-4.708Zm6.992,0h3.7l-.4,1.005h-2.2l-.258.749H139.6l-.379.96H137.2l-.319.927H139.2l-.416,1.067h-3.726l1.622-4.708Zm4.752,0-1.622,4.708h3.384l.448-1.16h-1.978l1.222-3.549Zm3.951,0H148.1a1.088,1.088,0,0,1,.928.338.864.864,0,0,1,.078.834,1.586,1.586,0,0,1-.507.717,1.785,1.785,0,0,1-.616.315.846.846,0,0,1,.6.419,1,1,0,0,1-.018.746,1.844,1.844,0,0,1-.4.659,2.063,2.063,0,0,1-.625.463,2,2,0,0,1-.605.153c-.342.042-.568.065-.674.065h-2.511l1.622-4.708Zm.832,1.847h.632a.928.928,0,0,0,.515-.117.646.646,0,0,0,.249-.339.324.324,0,0,0-.022-.321.554.554,0,0,0-.425-.116h-.642l-.308.893Zm-.637,1.849h.742a1.039,1.039,0,0,0,.575-.133.691.691,0,0,0,.278-.358.325.325,0,0,0-.037-.336.668.668,0,0,0-.491-.127H145.9l-.329.954Zm7.959-3.7h1.453l-.967,2.807a3.22,3.22,0,0,1-.4.788,2.792,2.792,0,0,1-.631.649,2.555,2.555,0,0,1-.718.39,3.446,3.446,0,0,1-1.072.157,6.071,6.071,0,0,1-.733-.048,1.482,1.482,0,0,1-.613-.191,1.034,1.034,0,0,1-.36-.407,1.069,1.069,0,0,1-.123-.543,2.8,2.8,0,0,1,.139-.8l.967-2.807h1.453l-.99,2.874a.69.69,0,0,0,.005.6.569.569,0,0,0,.518.217,1.087,1.087,0,0,0,.663-.214,1.232,1.232,0,0,0,.421-.605l.99-2.874Zm2.63,0-1.622,4.708H156.7a3.945,3.945,0,0,0,.911-.128,2.374,2.374,0,0,0,.784-.375,3.2,3.2,0,0,0,.717-.7,4.254,4.254,0,0,0,.575-1.171,3.649,3.649,0,0,0,.2-.912,1.56,1.56,0,0,0-.113-.755,1.02,1.02,0,0,0-.479-.5,2.173,2.173,0,0,0-.973-.173Zm1.087,1.067h.363c.376,0,.616.092.715.276a1.462,1.462,0,0,1-.109,1.024,2.965,2.965,0,0,1-.39.818,1.137,1.137,0,0,1-.424.353,1.768,1.768,0,0,1-.684.1h-.356l.886-2.572Zm4.62,2.084,1.414-.087a.878.878,0,0,0,.006.514.529.529,0,0,0,.544.285.936.936,0,0,0,.53-.146.684.684,0,0,0,.284-.339.333.333,0,0,0-.047-.328,1.315,1.315,0,0,0-.651-.273,2.142,2.142,0,0,1-1.168-.571.9.9,0,0,1-.1-.909,1.812,1.812,0,0,1,.447-.686,2.25,2.25,0,0,1,.807-.508,3.48,3.48,0,0,1,1.221-.184,1.844,1.844,0,0,1,1.261.335,1.068,1.068,0,0,1,.2,1.068l-1.4.08a.443.443,0,0,0-.5-.606.754.754,0,0,0-.419.108.514.514,0,0,0-.219.262.2.2,0,0,0,.036.2.872.872,0,0,0,.429.173,4.418,4.418,0,0,1,1.222.417.874.874,0,0,1,.421.522,1.209,1.209,0,0,1-.052.7,2.19,2.19,0,0,1-.538.834,2.524,2.524,0,0,1-.9.58,3.368,3.368,0,0,1-1.2.2q-1.2,0-1.5-.463a1.42,1.42,0,0,1-.119-1.175Zm4.736.248-.451,1.31h1.4l.451-1.31Zm5.037.533h-1.707l-.5.777h-1.486l3.44-4.708h1.586l.045,4.708h-1.414l.032-.777Zm.026-1.018.082-1.766-1.15,1.766Zm2.174.486h1.4l-.451,1.31h-1.4Z" transform="translate(0 -352.397)" fill="#fff"/>
    <g id="Group_93" data-name="Group 93" transform="translate(122.694 113.6)">
      <path id="Path_13" data-name="Path 13" d="M176.171,287.988l-25.829,32.029,36.964-26.168,13.4,26.093V288Z" transform="translate(-150.342 -257.561)" fill="#fff" fill-rule="evenodd"/>
      <path id="Path_14" data-name="Path 14" d="M322.915,113.6l-24.539,30.427,17.43-11.241,7.109,11.256Z" transform="translate(-272.547 -113.6)" fill="#fff" fill-rule="evenodd"/>
    </g>
    <path id="Path_15" data-name="Path 15" d="M181.792,475.517a4.33,4.33,0,0,1-1.067,2.419,2.525,2.525,0,0,1-1.911.5h-.758l1.4-4.007h1c1.023,0,1.413.177,1.34,1.083Zm4.513-1.09c.123-1.529-.3-2.287-1.488-2.691a8.687,8.687,0,0,0-2.184-.177h-6.469l-3.518,10.071h6.167c.316,0,.643.013.972.013a8.949,8.949,0,0,0,2.1-.215,4.456,4.456,0,0,0,2.46-1.681,12.186,12.186,0,0,0,1.958-5.32Zm-11.054-2.866-2.218,6.355A5.637,5.637,0,0,1,171.4,480.8c-1.077.821-2.669,1.139-4.855,1.139-3.272,0-4.748-.659-4.608-2.39a7.05,7.05,0,0,1,.456-1.731l2.185-6.254h4.283l-2.079,6.053a3.267,3.267,0,0,0-.178.644c-.039.48.232.72.788.72.733,0,1.181-.427,1.483-1.314l2.083-6.1Zm-17.866,6.287c-.053.657-.556,1.087-1.452,1.087h-1.92l.589-1.668h1.9c.657,0,.922.152.888.581Zm1.019-3.308c-.05.62-.53.924-1.452.924H155.2l.513-1.5h1.769c.682,0,.966.088.926.581Zm4.645-1.085c.124-1.541-.63-1.9-2.336-1.9H152.4l-3.519,10.084h8.05c1.807,0,2.956-.151,3.841-1.1a3.576,3.576,0,0,0,.88-2.135c.1-1.2-.557-1.706-2.106-1.769,2.168-.088,3.341-1.162,3.5-3.185Zm-13.424,4.865-1.371,3.324h-8.029l3.519-10.082h4.321l-2.271,6.758Zm-6.644-6.76h-9.277l-3.519,10.084h9.2l1.237-3H135.4l.359-1.011h4.925l.89-2.161H136.5l.348-1.1H141.8Z" transform="translate(-11.009 -295.504)" fill="#fff" fill-rule="evenodd"/>
    <path id="Path_16" data-name="Path 16" d="M223.17,499.566l.593-1.717h.406l-.475,1.374h.491l-.148.342Zm1.024,0,.593-1.717h.406l-.593,1.717Zm1.707-.669-.055.16-.03.073a.213.213,0,0,1-.207.169c-.049,0-.079-.013-.091-.04a.148.148,0,0,1,.005-.108l.3-.865a.256.256,0,0,1,.094-.137.213.213,0,0,1,.116-.027q.132,0,.057.219l-.039.112h.406l.039-.112.011-.032a.378.378,0,0,0-.014-.373.456.456,0,0,0-.367-.122.729.729,0,0,0-.495.164.823.823,0,0,0-.228.363l-.256.74a.467.467,0,0,0-.01.4q.084.128.367.128a.842.842,0,0,0,.4-.1.627.627,0,0,0,.313-.356l.087-.253Zm.334.669.134-.324h.344l-.144.324Z" transform="translate(-87.769 -317.177)" fill="#fff"/>
    <path id="Path_17" data-name="Path 17" d="M405.646,448.6v-.07c-.089-.049-.089-.135-.1-.272l-.018-.34c-.015-.257-.061-.4-.285-.474a.547.547,0,0,0,.34-.551.613.613,0,0,0-.67-.658c-.012,0-.055,0-.122,0H403.77V448.6h.392v-.976h.6c.312,0,.364.132.373.379l.015.285a.728.728,0,0,0,.058.312Zm-.459-1.677c0,.279-.156.37-.465.37h-.563v-.728h.572c.3,0,.456.086.456.358Zm-.582-1.137a1.7,1.7,0,1,1-1.7,1.7,1.7,1.7,0,0,1,1.7-1.7Zm0-.152a1.849,1.849,0,1,1-1.849,1.849A1.853,1.853,0,0,1,404.605,445.637Z" transform="translate(-236.021 -274.105)" fill="#fff" fill-rule="evenodd"/>
  </g>
</svg>
